<?xml version="1.0" encoding="UTF-8" standalone="no"?>
<svg
   xmlns:dc="http://purl.org/dc/elements/1.1/"
   xmlns:cc="http://creativecommons.org/ns#"
   xmlns:rdf="http://www.w3.org/1999/02/22-rdf-syntax-ns#"
   xmlns:svg="http://www.w3.org/2000/svg"
   xmlns="http://www.w3.org/2000/svg"
   xmlns:sodipodi="http://sodipodi.sourceforge.net/DTD/sodipodi-0.dtd"
   xmlns:inkscape="http://www.inkscape.org/namespaces/inkscape"
   version="1.0"
   width="1270.000000pt"
   height="752.000000pt"
   viewBox="0 0 1270.000000 752.000000"
   preserveAspectRatio="xMidYMid meet"
   id="svg2"
   inkscape:version="0.91 r13725"
   sodipodi:docname="Logo.svg">
  <defs
     id="defs28" />
  <sodipodi:namedview
     pagecolor="#ffffff"
     bordercolor="#666666"
     borderopacity="1"
     objecttolerance="10"
     gridtolerance="10"
     guidetolerance="10"
     inkscape:pageopacity="0"
     inkscape:pageshadow="2"
     inkscape:window-width="1600"
     inkscape:window-height="837"
     id="namedview26"
     showgrid="false"
     inkscape:zoom="0.31090427"
     inkscape:cx="-195.16736"
     inkscape:cy="490.71791"
     inkscape:window-x="-8"
     inkscape:window-y="-8"
     inkscape:window-maximized="1"
     inkscape:current-layer="svg2" />
  <metadata
     id="metadata4">
Created by potrace 1.13, written by Peter Selinger 2001-2015
<rdf:RDF>
  <cc:Work
     rdf:about="">
    <dc:format>image/svg+xml</dc:format>
    <dc:type
       rdf:resource="http://purl.org/dc/dcmitype/StillImage" />
  </cc:Work>
</rdf:RDF>
</metadata>
  <g
     transform="translate(0.000000,752.000000) scale(0.100000,-0.100000)"
     fill="#000000"
     stroke="none"
     id="g6"
     style="fill:#0000ff">
    <path
       d="M2910 7120 c528 -282 1094 -421 1545 -381 215 20 414 70 553 140 l59 30 47 -48 c174 -177 500 -231 746 -125 l59 26 65 -58 c79 -73 153 -118 248 -151 63 -23 90 -26 203 -27 l130 -1 3 318 2 317 -1867 0 -1868 -1 75 -39z"
       id="path8"
       style="fill:#0000ff" />
    <path
       d="M4685 6617 c-854 -293 -1457 -359 -1903 -210 -84 28 -214 90 -277 133 -22 14 -46 30 -52 34 -10 6 -13 -115 -13 -592 l0 -599 118 -7 c239 -13 605 20 867 79 251 56 499 159 637 264 l67 51 47 -68 c134 -187 342 -330 556 -382 286 -69 593 -6 873 182 44 29 85 56 91 60 7 5 25 -15 48 -51 83 -136 270 -271 422 -307 89 -21 255 -15 334 12 l55 19 3 440 2 440 -102 1 c-124 0 -206 26 -326 100 -72 45 -248 209 -315 292 l-27 34 -47 -42 c-74 -65 -178 -130 -262 -164 -66 -26 -89 -30 -176 -31 -88 0 -107 3 -156 26 -108 51 -183 138 -234 274 l-30 81 -200 -69z"
       id="path10"
       style="fill:#0000ff" />
    <path
       d="M3615 5249 c-308 -212 -710 -339 -1076 -339 l-109 0 0 -600 0 -601 63 34 c473 261 555 314 744 481 69 61 138 121 153 133 l28 23 43 -73 c197 -333 482 -516 834 -534 204 -11 381 28 580 127 189 94 377 246 505 409 30 38 57 70 60 70 3 1 11 -18 17 -41 27 -98 182 -281 323 -380 205 -145 449 -235 690 -254 l90 -7 0 582 c0 319 -2 581 -5 581 -3 0 -29 -17 -58 -39 -182 -136 -372 -148 -574 -36 -89 50 -253 214 -307 308 -21 37 -42 70 -46 72 -4 3 -27 -20 -51 -51 -126 -163 -327 -296 -543 -359 -471 -136 -1008 62 -1192 440 -24 50 -44 99 -44 108 0 27 -19 19 -125 -54z"
       id="path12"
       style="fill:#0000ff" />
    <path
       d="M8040 5195 c-81 -20 -145 -50 -236 -111 -296 -196 -584 -609 -665 -952 -49 -203 -52 -257 -58 -1017 l-6 -720 -115 3 c-116 2 -320 19 -352 28 -16 5 -18 -5 -18 -110 0 -64 2 -116 5 -116 3 0 65 7 138 15 73 9 179 17 237 18 l105 2 3 -390 c5 -570 -21 -1218 -49 -1235 -7 -5 -33 -11 -58 -15 -59 -9 -221 -51 -254 -66 l-26 -12 32 -21 c38 -26 47 -64 20 -84 -16 -13 -13 -14 27 -8 142 18 429 30 750 29 324 0 432 -4 730 -29 l75 -7 -25 20 c-21 18 -23 24 -12 47 17 37 57 44 88 15 29 -28 30 -33 2 -61 l-21 -21 64 6 c308 31 848 34 1165 6 157 -13 189 -9 197 23 15 56 -45 86 -265 131 l-162 33 -8 35 c-22 106 -28 336 -28 1052 0 517 -3 785 -10 798 -16 30 -57 24 -249 -35 -256 -80 -539 -146 -622 -146 l-29 0 0 66 c0 58 -2 65 -17 60 -53 -15 -287 -29 -498 -30 l-240 -1 -3 795 c-4 1008 8 1264 73 1551 39 177 76 244 131 237 41 -4 61 -48 78 -164 15 -109 29 -146 75 -191 55 -55 95 -68 211 -68 97 0 109 2 152 27 103 61 143 149 136 302 -3 73 -10 101 -30 142 -75 145 -254 214 -438 169z m66 -2963 c73 -6 83 -10 106 -36 22 -26 32 -30 114 -37 49 -4 157 -8 240 -8 l151 -1 7 -47 c37 -284 36 -1243 -2 -1464 l-7 -43 -139 -27 c-76 -16 -160 -35 -188 -43 -43 -12 -55 -12 -90 0 -66 23 -236 52 -373 64 -71 6 -153 13 -182 16 l-52 5 -6 62 c-22 231 -49 1507 -32 1551 6 14 30 16 189 15 101 0 219 -4 264 -7z"
       id="path14"
       style="fill:#0000ff" />
    <path
       d="M1413 3880 c-166 -35 -297 -207 -280 -369 10 -90 35 -147 91 -208 74 -82 145 -113 257 -113 76 0 93 4 147 31 68 34 128 94 163 167 20 40 24 63 24 147 0 90 -3 105 -28 153 -75 143 -230 222 -374 192z"
       id="path16"
       style="fill:#0000ff" />
    <path
       d="M8912 3880 c-68 -14 -129 -50 -183 -107 -74 -78 -94 -129 -94 -238 0 -78 4 -97 28 -147 34 -70 100 -138 164 -170 41 -20 63 -23 153 -23 97 0 109 2 158 29 66 37 116 92 151 165 22 47 26 70 26 146 0 79 -4 97 -29 149 -71 145 -226 226 -374 196z"
       id="path18"
       style="fill:#0000ff" />
    <path
       d="M5240 3604 c-304 -275 -629 -456 -933 -521 -123 -26 -335 -24 -452 5 -109 27 -266 103 -356 171 -90 68 -213 201 -280 299 -30 45 -57 81 -60 82 -3 0 -44 -47 -92 -104 -159 -191 -349 -350 -542 -453 l-90 -48 2049 -3 c1127 -1 2051 0 2054 3 3 2 7 26 10 53 l4 49 -140 7 c-307 15 -542 77 -746 197 -93 55 -252 213 -292 291 -16 32 -31 58 -34 58 -3 0 -48 -39 -100 -86z"
       id="path20"
       style="fill:#0000ff" />
    <path
       d="M1620 2464 c-267 -87 -495 -142 -712 -169 -150 -20 -193 -37 -193 -80 0 -50 28 -56 280 -62 l223 -6 6 -41 c37 -248 35 -1289 -3 -1475 l-7 -35 -162 -33 c-220 -45 -280 -75 -265 -131 8 -32 40 -36 197 -23 312 27 943 24 1155 -6 l44 -6 -22 22 c-28 28 -27 34 10 65 38 32 50 32 88 0 37 -31 38 -37 10 -65 l-22 -22 49 6 c241 30 670 33 1017 6 176 -13 207 -8 207 35 0 47 -32 66 -190 116 -113 36 -115 37 -121 71 -20 98 -29 341 -29 814 l0 524 93 49 c112 61 238 114 343 144 64 18 103 23 204 22 139 0 171 -9 236 -66 46 -40 70 -96 92 -212 15 -79 17 -157 16 -601 -1 -368 -6 -538 -15 -609 l-14 -99 -116 -37 c-120 -38 -183 -69 -193 -96 -9 -23 11 -53 41 -60 14 -4 126 1 249 11 243 19 498 17 766 -6 164 -14 198 -9 198 34 0 41 -44 69 -177 113 -118 38 -128 44 -135 70 -20 85 -28 296 -28 795 l0 548 83 45 c107 58 231 111 337 143 72 23 104 26 215 27 144 0 175 -8 241 -66 85 -75 104 -183 111 -628 6 -345 -8 -711 -30 -829 l-12 -64 -110 -36 c-168 -55 -212 -89 -180 -137 19 -29 24 -29 300 -9 305 22 652 18 903 -11 l54 -6 -21 21 c-25 25 -18 47 26 79 l27 20 -49 15 c-28 8 -107 25 -177 38 l-127 23 -11 64 c-20 117 -29 370 -30 821 0 345 -3 466 -15 547 -40 270 -133 385 -348 431 -102 21 -280 12 -409 -21 -173 -45 -531 -187 -740 -292 -26 -13 -51 -24 -56 -24 -4 0 -14 23 -21 50 -35 137 -166 251 -330 286 -229 48 -540 -29 -1053 -260 -67 -31 -126 -56 -130 -56 -4 0 -8 72 -8 161 0 91 -4 169 -10 180 -16 30 -59 24 -234 -31 -260 -82 -492 -135 -699 -160 -140 -17 -191 -45 -166 -91 18 -34 57 -40 285 -46 l222 -6 12 -86 c18 -123 26 -1029 10 -1231 -6 -85 -15 -173 -18 -195 l-7 -39 -70 -13 c-39 -8 -119 -25 -180 -39 l-110 -24 -110 24 c-60 14 -141 31 -180 39 l-70 13 -7 41 c-22 129 -28 371 -28 1073 0 582 -3 769 -12 778 -20 20 -76 12 -188 -24z"
       id="path22"
       style="fill:#0000ff" />
    <path
       d="M10745 2459 c-203 -25 -409 -85 -590 -174 -185 -91 -248 -151 -243 -230 2 -30 9 -42 26 -51 20 -10 39 -6 125 29 295 117 456 157 634 157 186 0 301 -49 353 -150 42 -81 52 -148 57 -374 5 -211 5 -219 -13 -212 -144 56 -375 112 -524 126 -290 28 -523 -46 -682 -218 -140 -152 -190 -382 -132 -606 53 -205 217 -353 436 -392 241 -44 499 45 822 284 l93 70 6 -97 c14 -220 81 -287 262 -263 44 6 116 23 160 37 261 88 625 327 625 411 0 24 -33 54 -59 54 -8 0 -56 -27 -106 -60 -124 -82 -193 -111 -261 -113 -50 -1 -59 2 -80 26 -12 15 -26 46 -29 69 -3 24 6 225 20 448 34 523 36 736 7 843 -54 198 -173 313 -379 368 -62 17 -115 22 -263 24 -102 2 -221 -1 -265 -6z m80 -1044 c39 -8 118 -31 178 -52 l107 -37 0 -237 0 -238 -122 -71 c-218 -126 -348 -161 -461 -125 -76 24 -129 72 -168 151 -29 59 -33 77 -37 176 -5 123 7 196 44 270 26 51 83 112 126 134 83 43 213 54 333 29z"
       id="path24"
       style="fill:#0000ff" />
  </g>
</svg>
